<svg xmlns="http://www.w3.org/2000/svg" fill="none" viewBox="0 0 80 120"><g clip-path="url(#a)"><path fill="#0ACF83" d="M20 120c11.04 0 20-8.96 20-20V79.998H20c-11.04 0-20.001 8.96-20.001 20 0 11.041 8.96 20.001 20 20.001"/><path fill="#A259FF" d="M-.001 60.01c0-11.04 8.96-20 20-20h20.002v40H20c-11.04 0-20.001-8.96-20.001-20"/><path fill="#F24E1E" d="M-.001 20.002C-.001 8.962 8.959 0 19.999 0h20.002v40.001H20c-11.04 0-20.001-8.96-20.001-20"/><path fill="#FF8066" d="M39.997 0h20C71.039 0 80 8.96 80 20c0 11.041-8.96 20.001-20.001 20.001h-20z"/><path fill="#1ABCFE" d="M80 60.01c0 11.04-8.96 20-20 20s-20.001-8.96-20.001-20 8.96-20 20-20c11.041 0 20.002 8.96 20.002 20"/></g><defs><clipPath id="a"><rect width="80" height="120" fill="#fff" rx="6.05"/></clipPath></defs></svg>